<svg width="43" height="41" viewBox="0 0 43 41" fill="none" xmlns="http://www.w3.org/2000/svg">
<path fill-rule="evenodd" clip-rule="evenodd" d="M31.7547 36.3274C37.9627 32.9332 42.1273 26.6731 42.1273 19.512C42.1273 8.73582 32.6968 0 21.0636 0C9.43051 0 0 8.73582 0 19.512C0 26.7803 4.29017 33.1204 10.6527 36.4779L15.834 30.6739L26.6108 30.6739L31.7547 36.3274Z" fill="url(#paint0_linear_1_1581)"/>
<path d="M15.9638 10.0664L20.7912 12.6517V17.8222L15.9638 20.4074L11.1364 17.8222V12.6517L15.9638 10.0664Z" fill="#BEDAEE"/>
<path d="M10.4982 1.20264L15.3256 3.78789V8.95841L10.4982 11.5437L5.67081 8.95841V3.78789L10.4982 1.20264Z" fill="#BEDAEE"/>
<path d="M26.911 10.0918L31.7384 12.6771V17.8476L26.911 20.4328L22.0837 17.8476V12.6771L26.911 10.0918Z" fill="#BEDAEE"/>
<path d="M32.3582 18.9302L37.1856 21.5154V26.6859L32.3582 29.2712L27.5309 26.6859V21.5154L32.3582 18.9302Z" fill="#BEDAEE"/>
<path d="M37.8239 27.7939L42.6513 30.3792V35.5497L37.8239 38.135L32.9965 35.5497V30.3792L37.8239 27.7939Z" fill="#C2DCEE"/>
<defs>
<linearGradient id="paint0_linear_1_1581" x1="21.0636" y1="0" x2="21.0636" y2="34.7148" gradientUnits="userSpaceOnUse">
<stop stop-color="#4B89AC"/>
<stop offset="1" stop-color="#446491"/>
</linearGradient>
</defs>
</svg>
