<svg width="20" height="19" viewBox="0 0 20 19" fill="none" xmlns="http://www.w3.org/2000/svg">
<path d="M7.17717 4.52563L9.34751 5.68793V8.01253L7.17717 9.17483L5.00683 8.01253V5.68793L7.17717 4.52563Z" fill="#47719B"/>
<path d="M4.71983 0.540771L6.89017 1.70307V4.02767L4.71983 5.18997L2.5495 4.02767V1.70307L4.71983 0.540771Z" fill="#47719B"/>
<path d="M12.0989 4.53711L14.2692 5.69941V8.02401L12.0989 9.18631L9.92853 8.02401V5.69941L12.0989 4.53711Z" fill="#47719B"/>
<path d="M14.5479 8.51099L16.7182 9.67329V11.9979L14.5479 13.1602L12.3776 11.9979V9.67329L14.5479 8.51099Z" fill="#47719B"/>
<path d="M17.0052 12.4958L19.1755 13.6581V15.9827L17.0052 17.145L14.8348 15.9827V13.6581L17.0052 12.4958Z" fill="#47719B"/>
</svg>
